<svg width="186" height="32" viewBox="0 0 186 32" fill="none" xmlns="http://www.w3.org/2000/svg">
<path d="M9.04946 19.957L13.2473 7.91398H18.1333L11.5957 25.1183H6.53763L0 7.91398H4.88602L9.04946 19.957Z" fill="#2563EB"/>
<path d="M34.2597 22.9849C32.5163 24.7283 30.36 25.6 27.7909 25.6C25.2217 25.6 23.0654 24.7283 21.322 22.9849C19.5787 21.2416 18.707 19.0853 18.707 16.5161C18.707 13.9699 19.5787 11.8251 21.322 10.0817C23.0884 8.31541 25.2446 7.43226 27.7909 7.43226C30.3371 7.43226 32.4934 8.31541 34.2597 10.0817C36.026 11.848 36.9091 13.9928 36.9091 16.5161C36.9091 19.0624 36.026 21.2186 34.2597 22.9849ZM24.4532 19.9226C25.3479 20.8172 26.4604 21.2645 27.7909 21.2645C29.1213 21.2645 30.2339 20.8172 31.1285 19.9226C32.0231 19.028 32.4704 17.8925 32.4704 16.5161C32.4704 15.1398 32.0231 14.0043 31.1285 13.1097C30.2339 12.2151 29.1213 11.7677 27.7909 11.7677C26.4604 11.7677 25.3479 12.2151 24.4532 13.1097C23.5815 14.0272 23.1457 15.1627 23.1457 16.5161C23.1457 17.8695 23.5815 19.005 24.4532 19.9226Z" fill="#2563EB"/>
<path d="M51.3866 17.2043V7.91398H55.8253V25.1183H51.3866V23.1914C50.3314 24.7971 48.6224 25.6 46.2597 25.6C44.3787 25.6 42.8188 24.9692 41.5801 23.7075C40.3643 22.4229 39.7565 20.6796 39.7565 18.4774V7.91398H44.1952V17.9269C44.1952 19.0509 44.4934 19.9226 45.0898 20.5419C45.7091 21.1613 46.5464 21.471 47.6016 21.471C48.7715 21.471 49.6891 21.1154 50.3543 20.4043C51.0425 19.6702 51.3866 18.6036 51.3866 17.2043Z" fill="#2563EB"/>
<path d="M68.0798 25.6C65.4877 25.6 63.32 24.7283 61.5766 22.9849C59.8562 21.2416 58.996 19.0853 58.996 16.5161C58.996 13.947 59.8562 11.7907 61.5766 10.0473C63.32 8.30394 65.4877 7.43226 68.0798 7.43226C69.7544 7.43226 71.2798 7.83369 72.6562 8.63656C74.0325 9.43943 75.0762 10.5176 75.7874 11.871L71.968 14.1075C71.6239 13.3964 71.0963 12.8344 70.3852 12.4215C69.697 12.0086 68.9171 11.8022 68.0454 11.8022C66.715 11.8022 65.6139 12.2495 64.7422 13.1441C63.8705 14.0158 63.4347 15.1398 63.4347 16.5161C63.4347 17.8466 63.8705 18.9706 64.7422 19.8882C65.6139 20.7599 66.715 21.1957 68.0454 21.1957C68.9401 21.1957 69.7315 21.0007 70.4196 20.6108C71.1307 20.1978 71.6583 19.6358 72.0024 18.9247L75.8562 21.1269C75.0992 22.5032 74.0211 23.5928 72.6218 24.3957C71.2454 25.1986 69.7314 25.6 68.0798 25.6Z" fill="#2563EB"/>
<path d="M87.7694 7.43226C89.6733 7.43226 91.2217 8.06308 92.4145 9.32473C93.6532 10.6093 94.2726 12.3527 94.2726 14.5548V25.1183H89.8339V15.1054C89.8339 13.9814 89.5242 13.1097 88.9048 12.4903C88.3084 11.871 87.4826 11.5613 86.4274 11.5613C85.2575 11.5613 84.3285 11.9283 83.6403 12.6624C82.9751 13.3735 82.6425 14.4287 82.6425 15.828V25.1183H78.2038V1.03226H82.6425V9.84086C83.6977 8.23513 85.4066 7.43226 87.7694 7.43226Z" fill="#2563EB"/>
<path d="M108.076 7.43226C110.392 7.43226 112.365 8.31541 113.994 10.0817C115.645 11.848 116.471 13.9928 116.471 16.5161C116.471 19.0853 115.645 21.2416 113.994 22.9849C112.388 24.7283 110.415 25.6 108.076 25.6C105.667 25.6 103.809 24.7627 102.501 23.0882V32H98.0626V7.91398H102.501V9.94409C103.809 8.26953 105.667 7.43226 108.076 7.43226ZM103.843 20.0258C104.738 20.9204 105.873 21.3677 107.25 21.3677C108.626 21.3677 109.762 20.9204 110.656 20.0258C111.574 19.1082 112.033 17.9384 112.033 16.5161C112.033 15.0939 111.574 13.9355 110.656 13.0409C109.762 12.1233 108.626 11.6645 107.25 11.6645C105.873 11.6645 104.738 12.1233 103.843 13.0409C102.949 13.9355 102.501 15.0939 102.501 16.5161C102.501 17.9384 102.949 19.1082 103.843 20.0258Z" fill="#2563EB"/>
<path d="M132.677 9.94409V7.91398H137.116V25.1183H132.677V23.0882C131.346 24.7627 129.477 25.6 127.068 25.6C124.774 25.6 122.802 24.7283 121.15 22.9849C119.521 21.2186 118.707 19.0624 118.707 16.5161C118.707 13.9928 119.521 11.848 121.15 10.0817C122.802 8.31541 124.774 7.43226 127.068 7.43226C129.477 7.43226 131.346 8.26953 132.677 9.94409ZM124.488 20.0258C125.382 20.9204 126.518 21.3677 127.894 21.3677C129.27 21.3677 130.406 20.9204 131.301 20.0258C132.218 19.1082 132.677 17.9384 132.677 16.5161C132.677 15.0939 132.218 13.9355 131.301 13.0409C130.406 12.1233 129.27 11.6645 127.894 11.6645C126.518 11.6645 125.382 12.1233 124.488 13.0409C123.593 13.9355 123.146 15.0939 123.146 16.5161C123.146 17.9384 123.593 19.1082 124.488 20.0258Z" fill="#2563EB"/>
<path d="M150.706 7.43226C152.61 7.43226 154.159 8.06308 155.351 9.32473C156.59 10.6093 157.209 12.3527 157.209 14.5548V25.1183H152.771V15.1054C152.771 13.9814 152.461 13.1097 151.842 12.4903C151.245 11.871 150.419 11.5613 149.364 11.5613C148.194 11.5613 147.265 11.9283 146.577 12.6624C145.912 13.3735 145.579 14.4287 145.579 15.828V25.1183H141.141V7.91398H145.579V9.84086C146.634 8.23513 148.343 7.43226 150.706 7.43226Z" fill="#2563EB"/>
<path d="M177.722 18.3398H164.75C165.323 20.4961 166.941 21.5742 169.602 21.5742C171.299 21.5742 172.584 21.0007 173.455 19.8538L177.034 21.9183C175.336 24.3728 172.836 25.6 169.533 25.6C166.688 25.6 164.406 24.7398 162.685 23.0194C160.965 21.2989 160.105 19.1312 160.105 16.5161C160.105 13.947 160.954 11.7907 162.651 10.0473C164.326 8.30394 166.505 7.43226 169.189 7.43226C171.735 7.43226 173.811 8.30394 175.417 10.0473C177.068 11.7907 177.894 13.947 177.894 16.5161C177.894 16.9979 177.837 17.6057 177.722 18.3398ZM164.681 14.8989H173.455C173.203 13.7749 172.687 12.9147 171.907 12.3183C171.15 11.7219 170.244 11.4237 169.189 11.4237C167.996 11.4237 167.009 11.7333 166.23 12.3527C165.45 12.9491 164.934 13.7978 164.681 14.8989Z" fill="#2563EB"/>
<path d="M185.431 25.1183H180.993V0H185.431V25.1183Z" fill="#2563EB"/>
</svg>
